# xmcd
#
# Track frame offsets:
#	150
#	17068
#	33797
#	53890
#	70899
#	84868
#	102534
#	118364
#	132407
#	148509
#	161866
#	179536
#	199591
#
# Disc length: 2913 seconds
#
# Revision: 0
# Processed by: cddbd v1.5.1PL0 Copyright (c) Steve Scherf et al.
# Submitted via: dBpowerAMP V4.0
#
DISCID=b90b5f0d
DTITLE=Don Campbell - Backyard Holiday
DYEAR=2004
DGENRE=Country
TTITLE0=Backyard Holiday
TTITLE1=Hot Tub
TTITLE2=Freedom Fighters
TTITLE3=Mr. Bill Gates
TTITLE4=Room For Love
TTITLE5=One Lifetime
TTITLE6=Interest of Time
TTITLE7=Front Porch Poker
TTITLE8=Workin' With Your Hands
TTITLE9=Hold You Tight
TTITLE10=She Likes The Road
TTITLE11=Hold Me Now
TTITLE12=Place Behind The Sun
EXTD=
EXTT0=
EXTT1=
EXTT2=
EXTT3=
EXTT4=
EXTT5=
EXTT6=
EXTT7=
EXTT8=
EXTT9=
EXTT10=
EXTT11=
EXTT12=
PLAYORDER=
